<?xml version="1.0" encoding="iso-8859-1"?>
<!-- Generator: Adobe Illustrator 19.0.0, SVG Export Plug-In . SVG Version: 6.00 Build 0)  -->
<svg version="1.1" id="Layer_1" xmlns="http://www.w3.org/2000/svg" xmlns:xlink="http://www.w3.org/1999/xlink" x="0px" y="0px"
	 viewBox="0 0 512.001 512.001" style="enable-background:new 0 0 512.001 512.001;" xml:space="preserve">
<g>
	<g>
		<path d="M456.497,125.949c-7.073-7.075-17.604-8.549-26.149-4.474l-49.716-49.714c-8.977-8.977-23.534-8.977-32.513,0
			l-97.543,97.538c-4.311,4.311-6.733,10.16-6.733,16.257c0,6.099,2.422,11.946,6.733,16.256l48.771,48.77l-36.585,36.585
			l-74.317,53.081c-1.03,0.736-1.999,1.557-2.894,2.452L55.501,472.754c-8.975,8.979-8.975,23.536,0.003,32.514
			c4.489,4.489,10.373,6.733,16.256,6.733c5.882,0,11.768-2.245,16.256-6.733l128.705-128.705l74.317-53.083
			c1.03-0.736,1.999-1.556,2.894-2.452l162.565-162.565C465.475,149.485,465.475,134.927,456.497,125.949z"/>
	</g>
</g>
<g>
	<g>
		<path d="M315.608,6.734c-8.975-8.978-23.533-8.978-32.513-0.002l-97.541,97.54c-8.978,8.977-8.978,23.534,0,32.513
			c4.489,4.491,10.373,6.735,16.257,6.735c5.882,0,11.768-2.245,16.256-6.735l97.541-97.538
			C324.587,30.27,324.587,15.711,315.608,6.734z"/>
	</g>
</g>
<g>
</g>
<g>
</g>
<g>
</g>
<g>
</g>
<g>
</g>
<g>
</g>
<g>
</g>
<g>
</g>
<g>
</g>
<g>
</g>
<g>
</g>
<g>
</g>
<g>
</g>
<g>
</g>
<g>
</g>
</svg>
