<?xml version="1.0" encoding="iso-8859-1"?>
<!-- Generator: Adobe Illustrator 19.0.0, SVG Export Plug-In . SVG Version: 6.00 Build 0)  -->
<svg version="1.1" id="Layer_1" xmlns="http://www.w3.org/2000/svg" xmlns:xlink="http://www.w3.org/1999/xlink" x="0px" y="0px"
	 viewBox="0 0 511.999 511.999" style="enable-background:new 0 0 511.999 511.999;" xml:space="preserve">
<g>
	<path style="fill:#CCCCCC;" d="M180.669,183.321L18.034,93.47c-21.324,38.598,2.634,92.676,53.515,120.785
		c35.661,19.701,75.054,21.388,102.782,7.359C168.609,208.41,171.47,193.477,180.669,183.321z"/>
	<path style="fill:#CCCCCC;" d="M221.446,174.502c14.033-27.728,12.347-67.125-7.355-102.787
		c-28.109-50.88-82.186-74.839-120.786-53.515l89.851,162.636c2.438-2.207,5.214-4.12,8.314-5.638
		C201.261,170.406,212.167,170.495,221.446,174.502z"/>
</g>
<path style="fill:#FF383E;" d="M482.08,251.604c-26.341-26.341-69.048-26.341-95.389,0c-5.044,5.044-9.115,10.693-12.227,16.708
	l-133.633-73.376c-0.413-1.112-0.883-2.213-1.416-3.3c-3.909-7.988-10.399-13.863-17.97-17.133
	c-9.279-4.008-20.185-4.096-29.976,0.696c-3.102,1.518-5.878,3.431-8.314,5.638c-0.874,0.791-1.703,1.621-2.487,2.485
	c-9.199,10.156-12.06,25.089-6.338,38.293c0.222,0.512,0.453,1.022,0.701,1.529c4.317,8.822,11.778,15.074,20.371,18.077
	l73.073,133.081c-6.015,3.113-11.664,7.182-16.708,12.227c-26.341,26.341-26.341,69.048,0,95.388s69.048,26.341,95.389,0
	c24.647-24.647,26.228-63.621,4.751-90.111l0.556,0.029l-91.636-131.171l131.17,91.637l-0.029-0.556
	c26.49,21.477,65.464,19.897,90.111-4.751C508.421,320.651,508.421,277.945,482.08,251.604z M321.53,412.153
	c12.188,12.188,12.188,31.947,0,44.135s-31.947,12.188-44.135,0c-12.188-12.188-12.188-31.947,0-44.135
	S309.343,399.965,321.53,412.153z M456.453,321.366c-12.188,12.188-31.947,12.188-44.135,0c-12.188-12.188-12.188-31.947,0-44.135
	c12.188-12.188,31.947-12.188,44.135,0C468.641,289.418,468.641,309.178,456.453,321.366z"/>
<path d="M270.184,463.501c8.071,8.071,18.675,12.107,29.279,12.107c10.603,0,21.207-4.036,29.279-12.107c0,0,0,0,0-0.001
	c16.143-16.144,16.143-42.413,0-58.558c-16.145-16.143-42.414-16.144-58.559,0.001C254.04,421.087,254.04,447.356,270.184,463.501z
	 M284.607,419.365c4.096-4.096,9.475-6.143,14.856-6.143c5.379,0,10.76,2.048,14.855,6.142c8.191,8.192,8.191,21.522,0.001,29.713
	c-8.192,8.19-21.521,8.191-29.713,0.001C276.415,440.886,276.415,427.556,284.607,419.365z"/>
<path d="M463.665,270.02c-7.821-7.822-18.218-12.13-29.279-12.13c-11.061,0-21.459,4.308-29.278,12.129
	c-7.822,7.821-12.13,18.218-12.13,29.279s4.308,21.459,12.129,29.279c7.821,7.821,18.218,12.129,29.279,12.129
	c11.061,0,21.459-4.308,29.279-12.129c7.821-7.821,12.129-18.218,12.129-29.279S471.485,277.84,463.665,270.02z M449.241,314.154
	c-3.968,3.968-9.243,6.153-14.855,6.153c-5.611,0-10.887-2.186-14.855-6.153c0-0.001,0-0.001-0.001-0.001
	c-3.968-3.968-6.153-9.243-6.153-14.855c0-5.611,2.186-10.887,6.154-14.856c3.968-3.968,9.243-6.153,14.855-6.153
	c5.612,0,10.887,2.186,14.856,6.154c3.968,3.968,6.153,9.243,6.153,14.855C455.395,304.91,453.21,310.185,449.241,314.154z"/>
<path d="M489.292,244.392c-14.666-14.666-34.166-22.743-54.906-22.743c-20.741,0-40.24,8.077-54.906,22.743
	c-3.186,3.186-6.078,6.626-8.65,10.288l-122.006-66.992c-0.085-0.177-0.159-0.358-0.246-0.534
	c-3.324-6.794-8.158-12.535-14.089-16.88c2.395-6.421,4.153-13.323,5.216-20.641c3.905-26.881-2.02-56.306-16.686-82.849
	C208.355,40.239,186.6,19.56,161.764,8.556C135.965-2.874,109.901-2.62,88.373,9.272c-2.367,1.308-4.118,3.503-4.867,6.102
	c-0.75,2.599-0.436,5.389,0.872,7.756l75.811,137.222L22.967,84.543c-2.366-1.308-5.159-1.621-7.756-0.872
	c-2.6,0.749-4.795,2.5-6.102,4.867c-11.893,21.527-12.147,47.59-0.716,73.39c11.004,24.837,31.681,46.591,58.226,61.256
	c21.215,11.72,44.263,17.857,66.388,17.857c5.559,0,11.065-0.389,16.463-1.172c7.324-1.064,14.23-2.824,20.656-5.222
	c4.657,6.366,10.846,11.405,18.094,14.675l66.627,121.342c-3.661,2.572-7.102,5.464-10.289,8.65
	c-30.275,30.277-30.275,79.537,0,109.813c15.138,15.137,35.022,22.706,54.906,22.706c19.884,0,39.769-7.569,54.906-22.706
	c27.372-27.372,30.39-70.191,7.604-100.98c-0.291-0.752-0.674-1.476-1.149-2.155l-58.721-84.055l84.054,58.721
	c0.678,0.475,1.402,0.859,2.154,1.149c13.768,10.189,29.938,15.219,46.061,15.218c19.931-0.001,39.788-7.69,54.92-22.821
	C519.567,323.929,519.567,274.667,489.292,244.392z M163.674,192.458c-2.631,7.674-3.174,15.718-1.696,23.476
	c-24.133,8.679-56.152,5.608-85.497-10.605c-41.737-23.059-63.889-64.844-53.562-97.508l143.094,79.055
	C165.124,188.671,164.335,190.53,163.674,192.458z M107.66,23.09c13.87-4.368,29.79-2.996,45.84,4.115
	c20.791,9.211,39.139,26.769,51.663,49.442c12.525,22.671,17.623,47.55,14.354,70.054c-0.796,5.479-2.07,10.641-3.787,15.438
	c-9.707-1.846-19.707-0.523-28.744,3.898c-0.094,0.046-0.183,0.097-0.275,0.143L107.66,23.09z M181.587,207.595
	c0-14.363,11.644-26.007,26.007-26.007s26.007,11.644,26.007,26.007s-11.644,26.007-26.007,26.007S181.587,221.959,181.587,207.595z
	 M342.21,394.966c0.38,1.166,0.974,2.273,1.775,3.261c18.49,22.805,16.753,55.683-4.041,76.476
	c-22.321,22.321-58.641,22.324-80.965,0c-22.322-22.323-22.322-58.643-0.001-80.965c4.185-4.185,8.956-7.676,14.184-10.382
	c2.442-1.264,4.269-3.458,5.07-6.088c0.801-2.629,0.506-5.471-0.817-7.881l-63.906-116.389c4.462-0.619,8.849-1.903,13.04-3.845
	l26.951,18.827L342.21,394.966z M474.868,339.78c-20.794,20.795-53.671,22.53-76.475,4.041c-0.988-0.801-2.095-1.394-3.261-1.775
	L268.15,253.336l-24.825-17.343c2.348-2.968,4.327-6.237,5.898-9.75c0.571-1.277,1.093-2.582,1.552-3.922
	c1.027-2.996,1.733-6.05,2.13-9.121l116.652,64.053c2.41,1.324,5.251,1.617,7.881,0.817c2.629-0.801,4.824-2.628,6.088-5.07
	c2.705-5.229,6.197-10,10.381-14.183c22.323-22.322,58.642-22.322,80.965,0C497.193,281.139,497.19,317.458,474.868,339.78z"/>
<path d="M202.084,154.099c-0.548,0-1.102-0.045-1.661-0.137c-5.558-0.911-9.327-6.155-8.415-11.714
	c1.478-9.022,0.972-19.107-1.465-29.165c-1.327-5.475,2.037-10.987,7.511-12.313c5.474-1.327,10.986,2.037,12.313,7.511
	c3.074,12.688,3.685,25.574,1.769,37.266C211.316,150.547,206.991,154.099,202.084,154.099z"/>
<path d="M190.405,95.238c-3.592,0-7.076-1.902-8.936-5.269c-10.853-19.644-27.842-34.268-45.447-39.118
	c-5.43-1.497-8.618-7.112-7.122-12.543c1.497-5.43,7.111-8.618,12.543-7.122c22.79,6.281,44.428,24.568,57.88,48.919
	c2.724,4.93,0.935,11.135-3.995,13.859C193.765,94.828,192.074,95.238,190.405,95.238z"/>
<g>
</g>
<g>
</g>
<g>
</g>
<g>
</g>
<g>
</g>
<g>
</g>
<g>
</g>
<g>
</g>
<g>
</g>
<g>
</g>
<g>
</g>
<g>
</g>
<g>
</g>
<g>
</g>
<g>
</g>
</svg>
