<?xml version="1.0" encoding="iso-8859-1"?>
<!-- Generator: Adobe Illustrator 16.0.0, SVG Export Plug-In . SVG Version: 6.00 Build 0)  -->
<!DOCTYPE svg PUBLIC "-//W3C//DTD SVG 1.1//EN" "http://www.w3.org/Graphics/SVG/1.1/DTD/svg11.dtd">
<svg version="1.1" id="Capa_1" xmlns="http://www.w3.org/2000/svg" xmlns:xlink="http://www.w3.org/1999/xlink" x="0px" y="0px"
	 width="97.727px" height="97.727px" viewBox="0 0 97.727 97.727" style="enable-background:new 0 0 97.727 97.727;"
	 xml:space="preserve">
<g>
	<path d="M80.242,64.616c-1.082-2.392-3.07-4.256-5.527-5.183c-2.457-0.926-5.181-0.838-7.573,0.246l-5.936,2.686l-0.712-1.573
		l3.075-1.313L82.057,18.62C85.261,11.54,82.119,3.204,75.039,0L53.007,48.691l-4.143,1.77l-4.143-1.77L22.689,0.001
		c-7.08,3.204-10.222,11.54-7.019,18.62l18.488,40.855l3.075,1.314l-0.712,1.573l-5.936-2.687c-2.392-1.082-5.116-1.17-7.573-0.244
		s-4.445,2.789-5.527,5.182l-6.662,14.723c-2.254,4.98-0.043,10.846,4.938,13.1l9.737,4.406c4.981,2.254,10.846,0.043,13.1-4.938
		l8.612-19.031l1.653-3.653l1.653,3.653l8.611,19.031c1.083,2.392,3.071,4.256,5.527,5.183c2.457,0.926,5.181,0.838,7.573-0.244
		l9.736-4.406c4.981-2.254,7.192-8.119,4.938-13.1L80.242,64.616z M32.545,86.323c-1.064,2.351-3.833,3.396-6.185,2.331l-5.015-2.27
		c-1.129-0.511-2.009-1.449-2.446-2.608c-0.438-1.16-0.396-2.446,0.115-3.575L23.539,70.2c0.511-1.129,1.45-2.009,2.609-2.446
		c1.16-0.437,2.446-0.396,3.575,0.115l5.016,2.27c1.129,0.512,2.009,1.451,2.446,2.609c0.437,1.16,0.396,2.446-0.115,3.575
		L32.545,86.323z M48.864,64.156c-2.876,0-5.208-2.332-5.208-5.208s2.332-5.208,5.208-5.208s5.208,2.332,5.208,5.208
		S51.74,64.156,48.864,64.156z M60.657,76.323c-0.511-1.129-0.552-2.415-0.115-3.575c0.438-1.16,1.317-2.098,2.446-2.609l5.016-2.27
		c1.129-0.511,2.415-0.552,3.575-0.115c1.16,0.438,2.098,1.317,2.609,2.446l4.524,10.001c0.511,1.129,0.553,2.415,0.115,3.575
		s-1.317,2.098-2.446,2.608l-5.015,2.27c-2.353,1.064-5.121,0.02-6.186-2.331L60.657,76.323z"/>
</g>
<g>
</g>
<g>
</g>
<g>
</g>
<g>
</g>
<g>
</g>
<g>
</g>
<g>
</g>
<g>
</g>
<g>
</g>
<g>
</g>
<g>
</g>
<g>
</g>
<g>
</g>
<g>
</g>
<g>
</g>
</svg>
