<svg width="108" height="104" viewBox="0 0 108 104" fill="none" xmlns="http://www.w3.org/2000/svg">
<g clip-path="url(#clip0_52_179)">
<path d="M25.7863 3.54009C24.3815 5.68267 22.3482 8.57912 21.2761 9.96783C20.2041 11.3962 18.9841 13.4594 18.5774 14.6101C17.3575 18.1414 16.6181 23.7359 16.5811 29.4494C16.5072 39.2894 17.8381 41.9478 29.8159 56.311C34.0673 61.4294 35.4721 64.8813 36.1375 71.6661L36.3963 74.4435L38.2817 72.2613C43.0137 66.9048 44.8991 61.8261 44.1227 56.3903C43.2725 50.5974 40.6477 45.7171 34.8436 39.1704C32.7734 36.8294 30.7401 34.171 30.3704 33.2584C30.0007 32.3459 29.1135 29.1717 28.4481 26.2355C27.0802 20.5617 25.7124 17.0304 24.5294 16.3559C23.9009 15.9988 23.753 16.1575 23.3834 17.3875C22.7919 19.2523 23.4573 27.783 24.4924 31.7507C25.3797 35.2026 25.3797 34.8852 24.4924 35.1233C23.9009 35.282 23.5682 34.8852 22.644 32.9013C21.2022 29.7668 20.7956 26.9497 20.7956 20.522C20.7956 14.7688 21.0913 13.8562 22.9397 13.4594C23.827 13.261 24.3445 12.6262 25.7124 10.1265C26.6366 8.42041 27.7457 6.1588 28.1523 5.12719C28.9286 3.22268 29.2244 -0.308609 28.6329 -0.308609C28.4481 -0.308609 27.1542 1.43719 25.7863 3.54009Z" fill="white"/>
<path d="M77.5793 -0.0308533C76.6921 0.92141 77.8011 4.84946 80.1301 9.21397C81.7937 12.3088 82.8288 13.5785 83.6422 13.5785C83.9749 13.5785 84.5294 13.8959 84.8621 14.2927C85.3797 14.9275 85.4906 15.9988 85.4906 20.8394C85.4906 27.4259 85.1209 29.8859 83.5682 33.1394C82.644 35.1233 82.4222 35.3614 81.7937 35.0043C81.1283 34.6075 81.1283 34.5678 81.8307 31.9491C82.7919 28.3781 83.5313 18.5778 82.9398 16.9907L82.4961 15.8401L81.424 16.9511C80.0932 18.3001 79.2059 20.7204 77.7272 27.1085C77.0987 29.7668 76.2484 32.6633 75.8418 33.5362C75.4351 34.3694 73.5128 36.8691 71.5904 39.0513C64.8991 46.6694 62.2373 52.2242 62.1634 58.8107C62.1264 61.5881 62.2743 62.1436 63.79 65.6749C65.1209 68.6507 65.9712 70.0394 67.7826 71.9836L70.1117 74.4832L70.4074 70.7139C70.888 64.0481 72.7364 60.3581 79.3538 52.8591C88.0044 43.0588 90.3335 37.4246 89.8159 27.4656C89.5202 21.9504 88.5959 16.6336 87.5239 14.0546C87.0433 12.904 85.6385 10.682 84.4555 9.09494C83.2725 7.50785 81.3871 4.84946 80.315 3.14334C78.2447 -0.110207 77.986 -0.42762 77.5793 -0.0308533Z" fill="white"/>
<path d="M28.9657 9.05525L26.23 14.0149L27.1542 15.0465L28.0784 16.0385L29.4093 13.6975C30.1117 12.4278 31.0729 10.444 31.4795 9.29332C32.2189 7.26977 32.5516 4.0559 31.9971 4.0559C31.8122 4.0559 30.4814 6.31751 28.9657 9.05525Z" fill="white"/>
<path d="M74.0303 5.44461C74.0303 7.15074 74.9915 9.96783 76.8029 13.3801L78.1708 16.0385L79.058 15.1259C79.5386 14.6498 79.9452 14.0943 79.9452 13.9356C79.9452 13.4198 74.5848 4.0559 74.326 4.0559C74.1412 4.0559 74.0303 4.69074 74.0303 5.44461Z" fill="white"/>
<path d="M33.217 11.7136C32.4407 13.2611 31.2207 15.5623 30.5553 16.7923C29.3723 18.9349 29.3353 19.0936 29.7789 20.7601L30.2595 22.4662L31.2207 20.7204C33.6976 16.1178 34.9915 12.904 35.1394 10.9201C35.2503 9.76945 35.1763 8.81719 34.9915 8.81719C34.8067 8.81719 33.9933 10.1265 33.217 11.7136Z" fill="white"/>
<path d="M71.2577 9.333C70.7771 10.6423 71.3686 12.9436 73.2909 16.9907C75.9527 22.7043 75.9896 22.7439 76.6181 20.7204C77.0617 19.3317 77.0617 18.9349 76.6181 18.2207C76.3224 17.7446 75.3981 15.9988 74.5479 14.372C73.6606 12.7452 72.6255 10.7614 72.2188 10.0075C71.6273 8.81719 71.4795 8.73783 71.2577 9.333Z" fill="white"/>
<path d="M42.1266 12.1501C37.3206 14.0546 34.9546 20.0062 37.0249 24.8865C39.0951 29.8065 43.3835 29.8462 47.6349 25.0055C50.8511 21.3552 52.4778 16.9114 51.4796 14.4117C51.2208 13.6975 50.4815 12.9436 49.7051 12.5469C47.9306 11.6343 43.938 11.4359 42.1266 12.1501ZM45.1949 17.5462C46.7107 19.173 45.4537 22.3075 43.2726 22.3075C42.3114 22.3075 40.7587 20.5617 40.7587 19.4904C40.7587 17.2288 43.6792 15.9194 45.1949 17.5462Z" fill="white"/>
<path d="M62.3113 17.3478C60.1737 17.9848 59.7235 20.4823 61.1653 21.9107C61.8307 22.5852 62.3853 22.7043 64.0488 22.6249C65.8233 22.5059 66.1191 22.3869 66.5627 21.4346C67.1912 20.0062 66.3937 17.5223 64.9731 17.1494C63.8148 16.8454 63.8641 16.8851 62.3113 17.3478Z" fill="white"/>
<path d="M49.816 27.6639C48.1154 28.3385 47.413 29.1717 47.413 30.6397C47.413 32.1078 48.0415 32.822 50.4814 34.0123C52.8474 35.2026 53.1062 35.9168 51.8492 37.7817C50.925 39.1704 49.0027 40.1623 47.2282 40.1623C46.193 40.1623 45.6385 39.8846 44.8991 38.972C43.7531 37.5833 42.755 37.4246 42.4222 38.5752C41.8677 40.4797 44.5295 42.5429 47.5979 42.5429C49.3723 42.5429 51.1099 41.8288 52.4777 40.4797L53.291 39.6465L55.2134 40.9955C58.6884 43.3762 62.8659 42.9794 64.2707 40.1226C65.4167 37.7023 63.864 36.9088 62.0156 38.972C59.7235 41.5113 55.4722 39.8449 54.6219 36.1152C54.3631 35.0836 54.474 34.9646 56.7291 33.8536C59.1321 32.703 59.6126 32.1475 59.6126 30.481C59.6126 27.6639 53.9934 26.0768 49.816 27.6639Z" fill="white"/>
<path d="M7.83594 90.243H4.18359L4.16406 88.2313H7.23047C7.77083 88.2313 8.21354 88.1629 8.55859 88.0262C8.90365 87.883 9.16081 87.6779 9.33008 87.411C9.50586 87.1375 9.59375 86.8055 9.59375 86.4149C9.59375 85.9722 9.50911 85.6141 9.33984 85.3407C9.17708 85.0672 8.91992 84.8687 8.56836 84.745C8.22331 84.6213 7.77734 84.5594 7.23047 84.5594H5.19922V96.4832H2.26953V82.2645H7.23047C8.05729 82.2645 8.79622 82.3426 9.44727 82.4989C10.1048 82.6551 10.6615 82.8928 11.1172 83.2118C11.5729 83.5308 11.9212 83.9344 12.1621 84.4227C12.403 84.9045 12.5234 85.4774 12.5234 86.1414C12.5234 86.7274 12.39 87.2678 12.123 87.7625C11.8626 88.2573 11.4492 88.661 10.8828 88.9735C10.3229 89.286 9.59049 89.4585 8.68555 89.4911L7.83594 90.243ZM7.70898 96.4832H3.38281L4.52539 94.1981H7.70898C8.22331 94.1981 8.64323 94.1167 8.96875 93.9539C9.29427 93.7847 9.53516 93.5568 9.69141 93.2704C9.84766 92.9839 9.92578 92.6551 9.92578 92.284C9.92578 91.8674 9.85417 91.506 9.71094 91.2C9.57422 90.8941 9.35286 90.6597 9.04688 90.4969C8.74089 90.3276 8.33724 90.243 7.83594 90.243H5.01367L5.0332 88.2313H8.54883L9.22266 89.0223C10.0885 89.0093 10.7852 89.1623 11.3125 89.4813C11.8464 89.7938 12.2337 90.2007 12.4746 90.702C12.722 91.2033 12.8457 91.7404 12.8457 92.3133C12.8457 93.2248 12.6471 93.993 12.25 94.618C11.8529 95.2365 11.2702 95.702 10.502 96.0145C9.74023 96.327 8.80924 96.4832 7.70898 96.4832ZM21.1172 93.9539V85.9168H23.9297V96.4832H21.2832L21.1172 93.9539ZM21.4297 91.786L22.2598 91.7664C22.2598 92.4696 22.1784 93.1239 22.0156 93.7293C21.8529 94.3283 21.6087 94.8491 21.2832 95.2918C20.9577 95.728 20.5475 96.0698 20.0527 96.3172C19.5579 96.5581 18.9753 96.6786 18.3047 96.6786C17.7904 96.6786 17.3151 96.6069 16.8789 96.4637C16.4492 96.314 16.0781 96.0829 15.7656 95.7704C15.4596 95.4513 15.2188 95.0444 15.043 94.5497C14.8737 94.0484 14.7891 93.4461 14.7891 92.743V85.9168H17.6016V92.7625C17.6016 93.075 17.6374 93.3387 17.709 93.5536C17.7871 93.7684 17.8945 93.9442 18.0312 94.0809C18.168 94.2176 18.3275 94.3153 18.5098 94.3739C18.6986 94.4325 18.9069 94.4618 19.1348 94.4618C19.7142 94.4618 20.1699 94.3446 20.502 94.1102C20.8405 93.8758 21.0781 93.5568 21.2148 93.1532C21.3581 92.743 21.4297 92.2873 21.4297 91.786ZM26.0781 81.4832H28.8906V94.0614L28.6074 96.4832H26.0781V81.4832ZM35.5801 91.0926V91.2977C35.5801 92.0855 35.4954 92.8081 35.3262 93.4657C35.1634 94.1232 34.9095 94.6929 34.5645 95.1747C34.2194 95.6499 33.7897 96.021 33.2754 96.2879C32.7676 96.5484 32.1686 96.6786 31.4785 96.6786C30.834 96.6786 30.2741 96.5484 29.7988 96.2879C29.3301 96.0275 28.9362 95.6597 28.6172 95.1844C28.2982 94.7092 28.041 94.1525 27.8457 93.5145C27.6504 92.8765 27.5039 92.1799 27.4062 91.4247V90.9754C27.5039 90.2202 27.6504 89.5236 27.8457 88.8856C28.041 88.2476 28.2982 87.6909 28.6172 87.2157C28.9362 86.7404 29.3301 86.3726 29.7988 86.1122C30.2676 85.8517 30.821 85.7215 31.459 85.7215C32.1556 85.7215 32.7611 85.855 33.2754 86.1219C33.7962 86.3823 34.2259 86.7534 34.5645 87.2352C34.9095 87.7105 35.1634 88.2769 35.3262 88.9344C35.4954 89.5855 35.5801 90.3049 35.5801 91.0926ZM32.7676 91.2977V91.0926C32.7676 90.6629 32.735 90.2593 32.6699 89.8817C32.6113 89.4976 32.5072 89.1623 32.3574 88.8758C32.2077 88.5829 32.0026 88.3517 31.7422 88.1825C31.4883 88.0132 31.1595 87.9286 30.7559 87.9286C30.3717 87.9286 30.0462 87.9937 29.7793 88.1239C29.5124 88.2541 29.291 88.4364 29.1152 88.6707C28.946 88.9051 28.819 89.1851 28.7344 89.5106C28.6497 89.8296 28.5977 90.1812 28.5781 90.5653V91.8446C28.5977 92.3589 28.6823 92.8146 28.832 93.2118C28.9883 93.6024 29.2227 93.9116 29.5352 94.1395C29.8542 94.3609 30.2676 94.4715 30.7754 94.4715C31.1725 94.4715 31.5013 94.3934 31.7617 94.2372C32.0221 94.0809 32.224 93.8595 32.3672 93.5731C32.5169 93.2866 32.6211 92.9513 32.6797 92.5672C32.7383 92.1766 32.7676 91.7534 32.7676 91.2977ZM37.3281 81.4832H40.1406V94.0614L39.8574 96.4832H37.3281V81.4832ZM46.8301 91.0926V91.2977C46.8301 92.0855 46.7454 92.8081 46.5762 93.4657C46.4134 94.1232 46.1595 94.6929 45.8145 95.1747C45.4694 95.6499 45.0397 96.021 44.5254 96.2879C44.0176 96.5484 43.4186 96.6786 42.7285 96.6786C42.084 96.6786 41.5241 96.5484 41.0488 96.2879C40.5801 96.0275 40.1862 95.6597 39.8672 95.1844C39.5482 94.7092 39.291 94.1525 39.0957 93.5145C38.9004 92.8765 38.7539 92.1799 38.6562 91.4247V90.9754C38.7539 90.2202 38.9004 89.5236 39.0957 88.8856C39.291 88.2476 39.5482 87.6909 39.8672 87.2157C40.1862 86.7404 40.5801 86.3726 41.0488 86.1122C41.5176 85.8517 42.071 85.7215 42.709 85.7215C43.4056 85.7215 44.0111 85.855 44.5254 86.1219C45.0462 86.3823 45.4759 86.7534 45.8145 87.2352C46.1595 87.7105 46.4134 88.2769 46.5762 88.9344C46.7454 89.5855 46.8301 90.3049 46.8301 91.0926ZM44.0176 91.2977V91.0926C44.0176 90.6629 43.985 90.2593 43.9199 89.8817C43.8613 89.4976 43.7572 89.1623 43.6074 88.8758C43.4577 88.5829 43.2526 88.3517 42.9922 88.1825C42.7383 88.0132 42.4095 87.9286 42.0059 87.9286C41.6217 87.9286 41.2962 87.9937 41.0293 88.1239C40.7624 88.2541 40.541 88.4364 40.3652 88.6707C40.196 88.9051 40.069 89.1851 39.9844 89.5106C39.8997 89.8296 39.8477 90.1812 39.8281 90.5653V91.8446C39.8477 92.3589 39.9323 92.8146 40.082 93.2118C40.2383 93.6024 40.4727 93.9116 40.7852 94.1395C41.1042 94.3609 41.5176 94.4715 42.0254 94.4715C42.4225 94.4715 42.7513 94.3934 43.0117 94.2372C43.2721 94.0809 43.474 93.8595 43.6172 93.5731C43.7669 93.2866 43.8711 92.9513 43.9297 92.5672C43.9883 92.1766 44.0176 91.7534 44.0176 91.2977ZM51.5469 81.4832V96.4832H48.7246V81.4832H51.5469ZM58.7344 96.6786C57.9141 96.6786 57.1784 96.5484 56.5273 96.2879C55.8763 96.021 55.3229 95.6532 54.8672 95.1844C54.418 94.7157 54.0729 94.172 53.832 93.5536C53.5911 92.9286 53.4707 92.2645 53.4707 91.5614V91.1707C53.4707 90.37 53.5846 89.6375 53.8125 88.9735C54.0404 88.3094 54.3659 87.7332 54.7891 87.245C55.2188 86.7567 55.7396 86.3823 56.3516 86.1219C56.9635 85.855 57.6536 85.7215 58.4219 85.7215C59.1706 85.7215 59.8346 85.8452 60.4141 86.0926C60.9935 86.34 61.4785 86.6916 61.8691 87.1473C62.2663 87.603 62.5658 88.1499 62.7676 88.7879C62.9694 89.4194 63.0703 90.1226 63.0703 90.8973V92.0692H54.6719V90.1942H60.3066V89.9793C60.3066 89.5887 60.235 89.2404 60.0918 88.9344C59.9551 88.6219 59.7467 88.3745 59.4668 88.1922C59.1868 88.0099 58.8288 87.9188 58.3926 87.9188C58.0215 87.9188 57.7025 88.0002 57.4355 88.1629C57.1686 88.3257 56.9505 88.5536 56.7812 88.8465C56.6185 89.1395 56.4948 89.4845 56.4102 89.8817C56.332 90.2723 56.293 90.702 56.293 91.1707V91.5614C56.293 91.9845 56.3516 92.3752 56.4688 92.7332C56.5924 93.0913 56.765 93.4006 56.9863 93.661C57.2142 93.9214 57.4876 94.1232 57.8066 94.2664C58.1322 94.4097 58.5 94.4813 58.9102 94.4813C59.418 94.4813 59.89 94.3836 60.3262 94.1883C60.7689 93.9865 61.1497 93.6838 61.4688 93.2801L62.8359 94.7645C62.6146 95.0835 62.3118 95.3895 61.9277 95.6825C61.5501 95.9754 61.0944 96.2163 60.5605 96.4051C60.0267 96.5874 59.418 96.6786 58.7344 96.6786ZM69.2129 96.4832H66.1172L66.1367 94.1981H69.2129C69.9811 94.1981 70.6289 94.0256 71.1562 93.6805C71.6836 93.3289 72.0807 92.8179 72.3477 92.1473C72.6211 91.4767 72.7578 90.6662 72.7578 89.7157V89.0223C72.7578 88.2931 72.6797 87.6519 72.5234 87.0985C72.3737 86.5451 72.1491 86.0796 71.8496 85.702C71.5501 85.3244 71.1823 85.0412 70.7461 84.8524C70.3099 84.6571 69.8086 84.5594 69.2422 84.5594H66.0586V82.2645H69.2422C70.1927 82.2645 71.0618 82.4273 71.8496 82.7528C72.6439 83.0718 73.3307 83.5308 73.9102 84.1297C74.4896 84.7287 74.9355 85.4448 75.248 86.2782C75.5671 87.105 75.7266 88.0262 75.7266 89.0418V89.7157C75.7266 90.7248 75.5671 91.646 75.248 92.4793C74.9355 93.3127 74.4896 94.0288 73.9102 94.6278C73.3372 95.2202 72.6504 95.6792 71.8496 96.0047C71.0553 96.3237 70.1764 96.4832 69.2129 96.4832ZM67.7773 82.2645V96.4832H64.8477V82.2645H67.7773ZM77.2305 91.3075V91.1024C77.2305 90.3276 77.3411 89.6148 77.5625 88.9637C77.7839 88.3062 78.1061 87.7365 78.5293 87.2547C78.9525 86.773 79.4733 86.3986 80.0918 86.1317C80.7103 85.8582 81.4199 85.7215 82.2207 85.7215C83.0215 85.7215 83.7344 85.8582 84.3594 86.1317C84.9844 86.3986 85.5085 86.773 85.9316 87.2547C86.3613 87.7365 86.6868 88.3062 86.9082 88.9637C87.1296 89.6148 87.2402 90.3276 87.2402 91.1024V91.3075C87.2402 92.0757 87.1296 92.7886 86.9082 93.4461C86.6868 94.0972 86.3613 94.6668 85.9316 95.1551C85.5085 95.6369 84.9876 96.0112 84.3691 96.2782C83.7507 96.5451 83.041 96.6786 82.2402 96.6786C81.4395 96.6786 80.7266 96.5451 80.1016 96.2782C79.4831 96.0112 78.959 95.6369 78.5293 95.1551C78.1061 94.6668 77.7839 94.0972 77.5625 93.4461C77.3411 92.7886 77.2305 92.0757 77.2305 91.3075ZM80.043 91.1024V91.3075C80.043 91.7502 80.082 92.1636 80.1602 92.5477C80.2383 92.9318 80.362 93.2704 80.5312 93.5633C80.707 93.8498 80.9349 94.0744 81.2148 94.2372C81.4948 94.3999 81.8366 94.4813 82.2402 94.4813C82.6309 94.4813 82.9661 94.3999 83.2461 94.2372C83.526 94.0744 83.7507 93.8498 83.9199 93.5633C84.0892 93.2704 84.2129 92.9318 84.291 92.5477C84.3757 92.1636 84.418 91.7502 84.418 91.3075V91.1024C84.418 90.6727 84.3757 90.2691 84.291 89.8914C84.2129 89.5073 84.0859 89.1688 83.9102 88.8758C83.7409 88.5763 83.5163 88.342 83.2363 88.1727C82.9564 88.0034 82.6178 87.9188 82.2207 87.9188C81.8236 87.9188 81.485 88.0034 81.2051 88.1727C80.9316 88.342 80.707 88.5763 80.5312 88.8758C80.362 89.1688 80.2383 89.5073 80.1602 89.8914C80.082 90.2691 80.043 90.6727 80.043 91.1024ZM95.6582 85.9168H98.207V96.1317C98.207 97.0952 97.9922 97.9123 97.5625 98.5829C97.1393 99.2599 96.5469 99.771 95.7852 100.116C95.0234 100.468 94.138 100.643 93.1289 100.643C92.6862 100.643 92.2174 100.585 91.7227 100.468C91.2344 100.35 90.7656 100.168 90.3164 99.9207C89.8737 99.6734 89.5026 99.3609 89.2031 98.9832L90.4434 97.3231C90.7689 97.7007 91.1465 97.9937 91.5762 98.202C92.0059 98.4168 92.4811 98.5243 93.002 98.5243C93.5098 98.5243 93.9395 98.4299 94.291 98.2411C94.6426 98.0588 94.9128 97.7886 95.1016 97.4305C95.2904 97.0789 95.3848 96.6525 95.3848 96.1512V88.3582L95.6582 85.9168ZM88.5488 91.327V91.1219C88.5488 90.3146 88.6465 89.5822 88.8418 88.9247C89.0436 88.2606 89.3268 87.6909 89.6914 87.2157C90.0625 86.7404 90.5117 86.3726 91.0391 86.1122C91.5664 85.8517 92.1621 85.7215 92.8262 85.7215C93.5293 85.7215 94.1185 85.8517 94.5938 86.1122C95.069 86.3726 95.4596 86.7437 95.7656 87.2254C96.0716 87.7007 96.3092 88.2638 96.4785 88.9149C96.6543 89.5594 96.791 90.2658 96.8887 91.034V91.4832C96.791 92.2189 96.6445 92.9025 96.4492 93.534C96.2539 94.1655 95.9967 94.7189 95.6777 95.1942C95.3587 95.6629 94.9616 96.0275 94.4863 96.2879C94.0176 96.5484 93.4577 96.6786 92.8066 96.6786C92.1556 96.6786 91.5664 96.5451 91.0391 96.2782C90.5182 96.0112 90.0723 95.6369 89.7012 95.1551C89.3301 94.6734 89.0436 94.1069 88.8418 93.4559C88.6465 92.8049 88.5488 92.0952 88.5488 91.327ZM91.3613 91.1219V91.327C91.3613 91.7632 91.4036 92.1701 91.4883 92.5477C91.5729 92.9253 91.7031 93.2606 91.8789 93.5536C92.0612 93.84 92.2858 94.0646 92.5527 94.2274C92.8262 94.3836 93.1484 94.4618 93.5195 94.4618C94.0339 94.4618 94.4538 94.3543 94.7793 94.1395C95.1048 93.9181 95.349 93.6154 95.5117 93.2313C95.6745 92.8472 95.7689 92.4045 95.7949 91.9032V90.6239C95.7819 90.2137 95.7266 89.8459 95.6289 89.5204C95.5312 89.1883 95.3945 88.9051 95.2188 88.6707C95.043 88.4364 94.8151 88.2541 94.5352 88.1239C94.2552 87.9937 93.9232 87.9286 93.5391 87.9286C93.168 87.9286 92.8457 88.0132 92.5723 88.1825C92.3053 88.3452 92.0807 88.5698 91.8984 88.8563C91.7227 89.1428 91.5892 89.4813 91.498 89.8719C91.4069 90.256 91.3613 90.6727 91.3613 91.1219Z" fill="white"/>
</g>
<defs>
<clipPath id="clip0_52_179">
<rect width="108" height="104" fill="white"/>
</clipPath>
</defs>
</svg>
