<svg width="121" height="297" viewBox="0 0 121 297" fill="none" xmlns="http://www.w3.org/2000/svg">
<path d="M110.646 295.168C115.057 293.692 119.045 289.233 119.965 284.735C121.763 276.075 113.096 267.426 104.44 269.243C97.927 270.595 92.8906 277.24 93.5277 283.502C93.9947 287.915 97.3199 292.45 101.525 294.505C104.09 295.721 108.041 296.011 110.646 295.168Z" fill="#0D1921"/>
<path d="M56.8493 295.225C61.2607 293.75 65.2487 289.29 66.1686 284.792C67.9666 276.132 59.2994 267.484 50.6434 269.3C44.1304 270.652 39.094 277.298 39.7311 283.559C40.1981 287.972 43.5232 292.508 47.7283 294.563C50.2934 295.779 54.2444 296.069 56.8493 295.225Z" fill="#0D1921"/>
<path d="M3.05216 295.283C7.46362 293.807 11.4516 289.348 12.3715 284.85C14.1695 276.19 5.50229 267.541 -3.15373 269.357C-9.66677 270.709 -14.7032 277.355 -14.066 283.617C-13.599 288.029 -10.2739 292.565 -6.06882 294.62C-3.50376 295.836 0.447266 296.126 3.05216 295.283Z" fill="#0D1921"/>
<path d="M110.589 241.371C115 239.895 118.988 235.436 119.908 230.938C121.706 222.278 113.039 213.629 104.383 215.446C97.8696 216.798 92.8332 223.444 93.4703 229.705C93.9374 234.118 97.2625 238.653 101.468 240.708C104.033 241.924 107.984 242.214 110.589 241.371Z" fill="#0D1921"/>
<path d="M56.7919 241.428C61.2034 239.953 65.1914 235.493 66.1112 230.995C67.9092 222.335 59.242 213.687 50.586 215.503C44.073 216.855 39.0366 223.501 39.6737 229.763C40.1407 234.175 43.4658 238.711 47.6709 240.766C50.236 241.982 54.187 242.272 56.7919 241.428Z" fill="#0D1921"/>
<path d="M2.99479 241.486C7.40625 240.01 11.3942 235.551 12.3141 231.053C14.1121 222.393 5.44492 213.744 -3.2111 215.561C-9.72414 216.912 -14.7605 223.558 -14.1234 229.82C-13.6564 234.233 -10.3313 238.768 -6.12619 240.823C-3.56113 242.039 0.389893 242.329 2.99479 241.486Z" fill="#0D1921"/>
<path d="M110.531 187.574C114.943 186.099 118.931 181.639 119.85 177.141C121.648 168.481 112.981 159.833 104.325 161.649C97.8122 163.001 92.7759 169.647 93.413 175.909C93.88 180.321 97.2051 184.857 101.41 186.912C103.975 188.128 107.926 188.418 110.531 187.574Z" fill="#0D1921"/>
<path d="M56.7343 187.632C61.1457 186.156 65.1337 181.697 66.0536 177.198C67.8516 168.539 59.1844 159.89 50.5284 161.706C44.0154 163.058 38.979 169.704 39.6161 175.966C40.0831 180.378 43.4082 184.914 47.6133 186.969C50.1784 188.185 54.1294 188.475 56.7343 187.632Z" fill="#0D1921"/>
<path d="M2.93738 187.689C7.34884 186.213 11.3368 181.754 12.2567 177.256C13.3022 172.337 10.9008 167.002 6.27428 163.855C1.77388 160.749 -3.35368 160.713 -7.88957 163.744C-15.3234 168.711 -16.3222 177.959 -10.0954 184.13C-6.51907 187.741 -1.39007 189.122 2.93738 187.689Z" fill="#0D1921"/>
<path d="M110.474 133.777C114.885 132.302 118.873 127.842 119.793 123.344C121.591 114.684 112.924 106.036 104.268 107.852C97.7551 109.204 92.7187 115.85 93.3558 122.111C93.8229 126.524 97.148 131.06 101.353 133.115C103.918 134.331 107.869 134.621 110.474 133.777Z" fill="#0D1921"/>
<path d="M56.6769 133.835C61.0884 132.359 65.0764 127.9 65.9962 123.402C67.7942 114.742 59.127 106.093 50.471 107.909C43.958 109.261 38.9216 115.907 39.5587 122.169C40.0257 126.581 43.3509 131.117 47.5559 133.172C50.121 134.388 54.072 134.678 56.6769 133.835Z" fill="#0D1921"/>
<path d="M2.88001 133.892C7.29147 132.416 11.2795 127.957 12.1993 123.459C13.2448 118.54 10.8434 113.205 6.21691 110.058C1.71651 106.953 -3.41106 106.916 -7.94695 109.947C-15.3808 114.914 -16.3796 124.162 -10.1527 130.333C-6.57644 133.944 -1.44744 135.325 2.88001 133.892Z" fill="#0D1921"/>
<path d="M110.417 79.9804C114.828 78.5047 118.816 74.0454 119.736 69.5473C121.534 60.8874 112.867 52.2387 104.211 54.0552C97.6977 55.4071 92.6614 62.053 93.2985 68.3146C93.7655 72.7272 97.0906 77.2627 101.296 79.3177C103.861 80.5338 107.812 80.8238 110.417 79.9804Z" fill="#0D1921"/>
<path d="M56.6195 80.0378C61.031 78.5621 65.019 74.1028 65.9388 69.6047C67.7368 60.9448 59.0697 52.2961 50.4137 54.1126C43.9006 55.4644 38.8642 62.1104 39.5013 68.372C39.9684 72.7845 43.2935 77.3201 47.4986 79.375C50.0636 80.5911 54.0146 80.8811 56.6195 80.0378Z" fill="#0D1921"/>
<path d="M2.82288 80.095C7.23434 78.6193 11.2223 74.16 12.1422 69.6619C13.1877 64.7434 10.7863 59.4083 6.15978 56.2611C1.65938 53.1557 -3.46818 53.1192 -8.00408 56.1501C-15.4379 61.1174 -16.4367 70.3648 -10.2099 76.5365C-6.63357 80.1471 -1.50457 81.5286 2.82288 80.095Z" fill="#0D1921"/>
<path d="M110.359 26.1833C114.771 24.7076 118.759 20.2483 119.679 15.7502C121.477 7.09032 112.809 -1.55839 104.153 0.258076C97.6404 1.60994 92.604 8.25588 93.2411 14.5175C93.7081 18.93 97.0332 23.4656 101.238 25.5206C103.803 26.7367 107.754 27.0266 110.359 26.1833Z" fill="#0D1921"/>
<path d="M56.5624 26.2407C60.9739 24.7649 64.9619 20.3056 65.8817 15.8076C67.6797 7.14769 59.0125 -1.50102 50.3565 0.315449C43.8435 1.66732 38.8071 8.31325 39.4442 14.5749C39.9112 18.9874 43.2364 23.523 47.4414 25.5779C50.0065 26.794 53.9575 27.084 56.5624 26.2407Z" fill="#0D1921"/>
<path d="M2.76529 26.298C7.17676 24.8223 11.1647 20.363 12.0846 15.8649C13.8826 7.20506 5.21542 -1.44365 -3.44059 0.372822C-9.95363 1.72469 -14.99 8.37062 -14.3529 14.6323C-13.8859 19.0448 -10.5608 23.5804 -6.35568 25.6353C-3.79062 26.8514 0.160401 27.1414 2.76529 26.298Z" fill="#0D1921"/>
</svg>
